<mxfile host="app.diagrams.net" modified="2024-01-16T06:37:56.214Z" agent="Mozilla/5.0 (Windows NT 10.0; Win64; x64) AppleWebKit/537.36 (KHTML, like Gecko) Chrome/120.0.0.0 Safari/537.36" etag="xADPY95LscasI6_QegXh" version="22.1.18" type="github">
  <diagram id="jrXY4hO8n29qiqvIHeQG" name="Page-1">
    <mxGraphModel dx="2250" dy="2189" grid="1" gridSize="10" guides="1" tooltips="1" connect="1" arrows="1" fold="1" page="0" pageScale="1" pageWidth="827" pageHeight="1169" math="0" shadow="0">
      <root>
        <mxCell id="0" />
        <mxCell id="1" parent="0" />
        <mxCell id="n138znTcwOguHpTBxl-C-11" value="" style="group" parent="1" vertex="1" connectable="0">
          <mxGeometry x="-1050" y="-1320" width="1180" height="400" as="geometry" />
        </mxCell>
        <object placeholders="1" c4Name="Production Planner\Analyst " c4Type="Owner" c4Description="Maintaince and analysis" label="&lt;font style=&quot;font-size: 16px&quot;&gt;&lt;b&gt;%c4Name%&lt;/b&gt;&lt;/font&gt;&lt;div&gt;[%c4Type%]&lt;/div&gt;&lt;br&gt;&lt;div&gt;&lt;font style=&quot;font-size: 11px&quot;&gt;&lt;font color=&quot;#cccccc&quot;&gt;%c4Description%&lt;/font&gt;&lt;/div&gt;" id="rVh3fXT_g2Ho22-3dsOA-1">
          <mxCell style="html=1;fontSize=11;dashed=0;whiteSpace=wrap;fillColor=#083F75;strokeColor=#06315C;fontColor=#ffffff;shape=mxgraph.c4.person2;align=center;metaEdit=1;points=[[0.5,0,0],[1,0.5,0],[1,0.75,0],[0.75,1,0],[0.5,1,0],[0.25,1,0],[0,0.75,0],[0,0.5,0]];resizable=0;" parent="n138znTcwOguHpTBxl-C-11" vertex="1">
            <mxGeometry y="110" width="200" height="180" as="geometry" />
          </mxCell>
        </object>
        <object placeholders="1" c4Name="3PA (Production Plan Analysis)" c4Type="VBA modules -&gt; transition to Python, mySQL, Microsoft Access" c4Description="Planning, Database, Visualization, Analys" label="&lt;font style=&quot;font-size: 16px&quot;&gt;&lt;b&gt;%c4Name%&lt;/b&gt;&lt;/font&gt;&lt;div&gt;[%c4Type%]&lt;/div&gt;&lt;br&gt;&lt;div&gt;&lt;font style=&quot;font-size: 11px&quot;&gt;&lt;font color=&quot;#cccccc&quot;&gt;%c4Description%&lt;/font&gt;&lt;/div&gt;" id="rVh3fXT_g2Ho22-3dsOA-3">
          <mxCell style="rounded=1;whiteSpace=wrap;html=1;labelBackgroundColor=none;fillColor=#1061B0;fontColor=#ffffff;align=center;arcSize=10;strokeColor=#0D5091;metaEdit=1;resizable=0;points=[[0.25,0,0],[0.5,0,0],[0.75,0,0],[1,0.25,0],[1,0.5,0],[1,0.75,0],[0.75,1,0],[0.5,1,0],[0.25,1,0],[0,0.75,0],[0,0.5,0],[0,0.25,0]];fontSize=16;" parent="n138znTcwOguHpTBxl-C-11" vertex="1">
            <mxGeometry x="370" y="280" width="240" height="120" as="geometry" />
          </mxCell>
        </object>
        <object placeholders="1" c4Name="Infor M3" c4Type="ERP" c4Description="Business data collection " label="&lt;font style=&quot;font-size: 16px&quot;&gt;&lt;b&gt;%c4Name%&lt;/b&gt;&lt;/font&gt;&lt;div&gt;[%c4Type%]&lt;/div&gt;&lt;br&gt;&lt;div&gt;&lt;font style=&quot;font-size: 11px&quot;&gt;&lt;font color=&quot;#cccccc&quot;&gt;%c4Description%&lt;/font&gt;&lt;/div&gt;" id="rVh3fXT_g2Ho22-3dsOA-4">
          <mxCell style="rounded=1;whiteSpace=wrap;html=1;labelBackgroundColor=none;fillColor=#8C8496;fontColor=#ffffff;align=center;arcSize=10;strokeColor=#736782;metaEdit=1;resizable=0;points=[[0.25,0,0],[0.5,0,0],[0.75,0,0],[1,0.25,0],[1,0.5,0],[1,0.75,0],[0.75,1,0],[0.5,1,0],[0.25,1,0],[0,0.75,0],[0,0.5,0],[0,0.25,0]];fontSize=16;" parent="n138znTcwOguHpTBxl-C-11" vertex="1">
            <mxGeometry x="370" y="40" width="240" height="120" as="geometry" />
          </mxCell>
        </object>
        <object placeholders="1" c4Name="Production Team Lead " c4Type="User&#xa;User" c4Description="Receiving schedules, transforming to &#xa;shift assignment" label="&lt;font style=&quot;font-size: 16px&quot;&gt;&lt;b&gt;%c4Name%&lt;/b&gt;&lt;/font&gt;&lt;div&gt;[%c4Type%]&lt;/div&gt;&lt;br&gt;&lt;div&gt;&lt;font style=&quot;font-size: 11px&quot;&gt;&lt;font color=&quot;#cccccc&quot;&gt;%c4Description%&lt;/font&gt;&lt;/div&gt;" id="rVh3fXT_g2Ho22-3dsOA-6">
          <mxCell style="html=1;fontSize=11;dashed=0;whiteSpace=wrap;fillColor=#083F75;strokeColor=#06315C;fontColor=#ffffff;shape=mxgraph.c4.person2;align=center;metaEdit=1;points=[[0.5,0,0],[1,0.5,0],[1,0.75,0],[0.75,1,0],[0.5,1,0],[0.25,1,0],[0,0.75,0],[0,0.5,0]];resizable=0;" parent="n138znTcwOguHpTBxl-C-11" vertex="1">
            <mxGeometry x="740" y="100" width="200" height="180" as="geometry" />
          </mxCell>
        </object>
        <object placeholders="1" c4Name="[System Context] 3PA - Production Plan Program Analysis" c4Type="ContainerScopeBoundary" c4Description="Program overview" label="&lt;font style=&quot;font-size: 16px&quot;&gt;&lt;b&gt;&lt;div style=&quot;text-align: left&quot;&gt;%c4Name%&lt;/div&gt;&lt;/b&gt;&lt;/font&gt;&lt;div style=&quot;text-align: left&quot;&gt;%c4Description%&lt;/div&gt;" id="rVh3fXT_g2Ho22-3dsOA-7">
          <mxCell style="text;html=1;strokeColor=none;fillColor=none;align=left;verticalAlign=top;whiteSpace=wrap;rounded=0;metaEdit=1;allowArrows=0;resizable=1;rotatable=0;connectable=0;recursiveResize=0;expand=0;pointerEvents=0;points=[[0.25,0,0],[0.5,0,0],[0.75,0,0],[1,0.25,0],[1,0.5,0],[1,0.75,0],[0.75,1,0],[0.5,1,0],[0.25,1,0],[0,0.75,0],[0,0.5,0],[0,0.25,0]];fontSize=16;" parent="n138znTcwOguHpTBxl-C-11" vertex="1">
            <mxGeometry width="310" height="40" as="geometry" />
          </mxCell>
        </object>
        <object placeholders="1" c4Type="Relationship" c4Technology="VBA" c4Description="Clear, sort, transform data" label="&lt;div style=&quot;text-align: left&quot;&gt;&lt;div style=&quot;text-align: center&quot;&gt;&lt;b&gt;%c4Description%&lt;/b&gt;&lt;/div&gt;&lt;div style=&quot;text-align: center&quot;&gt;[%c4Technology%]&lt;/div&gt;&lt;/div&gt;" id="rVh3fXT_g2Ho22-3dsOA-8">
          <mxCell style="endArrow=blockThin;html=1;fontSize=10;fontColor=#404040;strokeWidth=1;endFill=1;strokeColor=#828282;elbow=vertical;metaEdit=1;endSize=14;startSize=14;jumpStyle=arc;jumpSize=16;rounded=0;exitX=1;exitY=0.75;exitDx=0;exitDy=0;exitPerimeter=0;entryX=0;entryY=0.5;entryDx=0;entryDy=0;entryPerimeter=0;dashed=1;dashPattern=8 8;" parent="n138znTcwOguHpTBxl-C-11" source="rVh3fXT_g2Ho22-3dsOA-1" target="rVh3fXT_g2Ho22-3dsOA-3" edge="1">
            <mxGeometry width="240" relative="1" as="geometry">
              <mxPoint x="280" y="210" as="sourcePoint" />
              <mxPoint x="520" y="210" as="targetPoint" />
            </mxGeometry>
          </mxCell>
        </object>
        <object placeholders="1" c4Type="Relationship" c4Technology="ERP, Outlook, XML file " c4Description="Collect data" label="&lt;div style=&quot;text-align: left&quot;&gt;&lt;div style=&quot;text-align: center&quot;&gt;&lt;b&gt;%c4Description%&lt;/b&gt;&lt;/div&gt;&lt;div style=&quot;text-align: center&quot;&gt;[%c4Technology%]&lt;/div&gt;&lt;/div&gt;" id="rVh3fXT_g2Ho22-3dsOA-9">
          <mxCell style="endArrow=blockThin;html=1;fontSize=10;fontColor=#404040;strokeWidth=1;endFill=1;strokeColor=#828282;elbow=vertical;metaEdit=1;endSize=14;startSize=14;jumpStyle=arc;jumpSize=16;rounded=0;exitX=0;exitY=0.5;exitDx=0;exitDy=0;exitPerimeter=0;entryX=1;entryY=0.75;entryDx=0;entryDy=0;entryPerimeter=0;dashed=1;dashPattern=8 8;" parent="n138znTcwOguHpTBxl-C-11" target="rVh3fXT_g2Ho22-3dsOA-1" edge="1">
            <mxGeometry x="-0.0019" width="240" relative="1" as="geometry">
              <mxPoint x="380" y="90" as="sourcePoint" />
              <mxPoint x="250" y="219.9799999999999" as="targetPoint" />
              <mxPoint as="offset" />
            </mxGeometry>
          </mxCell>
        </object>
        <object placeholders="1" c4Type="Relationship" c4Technology="Outlook XML to VBA macros" c4Description="Collect data" label="&lt;div style=&quot;text-align: left&quot;&gt;&lt;div style=&quot;text-align: center&quot;&gt;&lt;b&gt;%c4Description%&lt;/b&gt;&lt;/div&gt;&lt;div style=&quot;text-align: center&quot;&gt;[%c4Technology%]&lt;/div&gt;&lt;/div&gt;" id="rVh3fXT_g2Ho22-3dsOA-10">
          <mxCell style="endArrow=blockThin;html=1;fontSize=10;fontColor=#404040;strokeWidth=1;endFill=1;strokeColor=#828282;elbow=vertical;metaEdit=1;endSize=14;startSize=14;jumpStyle=arc;jumpSize=16;rounded=0;exitX=0.5;exitY=1;exitDx=0;exitDy=0;exitPerimeter=0;entryX=0.5;entryY=0;entryDx=0;entryDy=0;entryPerimeter=0;dashed=1;dashPattern=8 8;" parent="n138znTcwOguHpTBxl-C-11" source="rVh3fXT_g2Ho22-3dsOA-4" target="rVh3fXT_g2Ho22-3dsOA-3" edge="1">
            <mxGeometry width="240" relative="1" as="geometry">
              <mxPoint x="430" y="230" as="sourcePoint" />
              <mxPoint x="670" y="230" as="targetPoint" />
              <mxPoint as="offset" />
            </mxGeometry>
          </mxCell>
        </object>
        <object placeholders="1" c4Type="Relationship" c4Technology="VBA, Outlook" c4Description="Sorted data output " label="&lt;div style=&quot;text-align: left&quot;&gt;&lt;div style=&quot;text-align: center&quot;&gt;&lt;b&gt;%c4Description%&lt;/b&gt;&lt;/div&gt;&lt;div style=&quot;text-align: center&quot;&gt;[%c4Technology%]&lt;/div&gt;&lt;/div&gt;" id="rVh3fXT_g2Ho22-3dsOA-11">
          <mxCell style="endArrow=blockThin;html=1;fontSize=10;fontColor=#404040;strokeWidth=1;endFill=1;strokeColor=#828282;elbow=vertical;metaEdit=1;endSize=14;startSize=14;jumpStyle=arc;jumpSize=16;rounded=0;exitX=1;exitY=0.5;exitDx=0;exitDy=0;exitPerimeter=0;entryX=0;entryY=0.75;entryDx=0;entryDy=0;entryPerimeter=0;dashed=1;dashPattern=8 8;" parent="n138znTcwOguHpTBxl-C-11" source="rVh3fXT_g2Ho22-3dsOA-3" target="rVh3fXT_g2Ho22-3dsOA-6" edge="1">
            <mxGeometry x="0.001" width="240" relative="1" as="geometry">
              <mxPoint x="660" y="360" as="sourcePoint" />
              <mxPoint x="900" y="360" as="targetPoint" />
              <mxPoint as="offset" />
            </mxGeometry>
          </mxCell>
        </object>
        <object placeholders="1" c4Name="Management" c4Type="User" c4Description="Decision making" label="&lt;font style=&quot;font-size: 16px&quot;&gt;&lt;b&gt;%c4Name%&lt;/b&gt;&lt;/font&gt;&lt;div&gt;[%c4Type%]&lt;/div&gt;&lt;br&gt;&lt;div&gt;&lt;font style=&quot;font-size: 11px&quot;&gt;&lt;font color=&quot;#cccccc&quot;&gt;%c4Description%&lt;/font&gt;&lt;/div&gt;" id="n138znTcwOguHpTBxl-C-1">
          <mxCell style="html=1;fontSize=11;dashed=0;whiteSpace=wrap;fillColor=#083F75;strokeColor=#06315C;fontColor=#ffffff;shape=mxgraph.c4.person2;align=center;metaEdit=1;points=[[0.5,0,0],[1,0.5,0],[1,0.75,0],[0.75,1,0],[0.5,1,0],[0.25,1,0],[0,0.75,0],[0,0.5,0]];resizable=0;" parent="n138znTcwOguHpTBxl-C-11" vertex="1">
            <mxGeometry x="980" y="220" width="200" height="180" as="geometry" />
          </mxCell>
        </object>
        <object placeholders="1" c4Type="Relationship" c4Technology="VBA, Outlook, PowerBI" c4Description="Visual output " label="&lt;div style=&quot;text-align: left&quot;&gt;&lt;div style=&quot;text-align: center&quot;&gt;&lt;b&gt;%c4Description%&lt;/b&gt;&lt;/div&gt;&lt;div style=&quot;text-align: center&quot;&gt;[%c4Technology%]&lt;/div&gt;&lt;/div&gt;" id="n138znTcwOguHpTBxl-C-2">
          <mxCell style="endArrow=blockThin;html=1;fontSize=10;fontColor=#404040;strokeWidth=1;endFill=1;strokeColor=#828282;elbow=vertical;metaEdit=1;endSize=14;startSize=14;jumpStyle=arc;jumpSize=16;rounded=0;dashed=1;dashPattern=8 8;" parent="n138znTcwOguHpTBxl-C-11" edge="1">
            <mxGeometry x="0.001" width="240" relative="1" as="geometry">
              <mxPoint x="610" y="343" as="sourcePoint" />
              <mxPoint x="980" y="343" as="targetPoint" />
              <mxPoint as="offset" />
            </mxGeometry>
          </mxCell>
        </object>
        <mxCell id="n138znTcwOguHpTBxl-C-12" value="" style="group" parent="1" vertex="1" connectable="0">
          <mxGeometry x="-1050" y="-690" width="1350" height="830" as="geometry" />
        </mxCell>
        <object placeholders="1" c4Name="[Containers] 3PA" c4Type="ContainerDiagramTitle" c4Description="Modules &amp; Components " label="&lt;font style=&quot;font-size: 16px&quot;&gt;&lt;b&gt;&lt;div style=&quot;text-align: left&quot;&gt;%c4Name%&lt;/div&gt;&lt;/b&gt;&lt;/font&gt;&lt;div style=&quot;text-align: left&quot;&gt;%c4Description%&lt;/div&gt;" id="JKiIZta1AgnHO22XSfvL-1">
          <mxCell style="text;html=1;strokeColor=none;fillColor=none;align=left;verticalAlign=top;whiteSpace=wrap;rounded=0;metaEdit=1;allowArrows=0;resizable=1;rotatable=0;connectable=0;recursiveResize=0;expand=0;pointerEvents=0;points=[[0.25,0,0],[0.5,0,0],[0.75,0,0],[1,0.25,0],[1,0.5,0],[1,0.75,0],[0.75,1,0],[0.5,1,0],[0.25,1,0],[0,0.75,0],[0,0.5,0],[0,0.25,0]];" parent="n138znTcwOguHpTBxl-C-12" vertex="1">
            <mxGeometry width="260" height="40" as="geometry" />
          </mxCell>
        </object>
        <object placeholders="1" c4Name="Production Planner\Analyst " c4Type="Owner" c4Description="Maintaince and analysis" label="&lt;font style=&quot;font-size: 16px&quot;&gt;&lt;b&gt;%c4Name%&lt;/b&gt;&lt;/font&gt;&lt;div&gt;[%c4Type%]&lt;/div&gt;&lt;br&gt;&lt;div&gt;&lt;font style=&quot;font-size: 11px&quot;&gt;&lt;font color=&quot;#cccccc&quot;&gt;%c4Description%&lt;/font&gt;&lt;/div&gt;" id="JKiIZta1AgnHO22XSfvL-2">
          <mxCell style="html=1;fontSize=11;dashed=0;whiteSpace=wrap;fillColor=#083F75;strokeColor=#06315C;fontColor=#ffffff;shape=mxgraph.c4.person2;align=center;metaEdit=1;points=[[0.5,0,0],[1,0.5,0],[1,0.75,0],[0.75,1,0],[0.5,1,0],[0.25,1,0],[0,0.75,0],[0,0.5,0]];resizable=0;" parent="n138znTcwOguHpTBxl-C-12" vertex="1">
            <mxGeometry y="110" width="200" height="180" as="geometry" />
          </mxCell>
        </object>
        <object placeholders="1" c4Name="3PA (Production Plan Analysis)" c4Type="VBA modules -&gt; transition to Python, mySQL, Microsoft Access" c4Description="Planning, Database, Visualization, Analys" label="&lt;font style=&quot;font-size: 16px&quot;&gt;&lt;b&gt;%c4Name%&lt;/b&gt;&lt;/font&gt;&lt;div&gt;[%c4Type%]&lt;/div&gt;&lt;br&gt;&lt;div&gt;&lt;font style=&quot;font-size: 11px&quot;&gt;&lt;font color=&quot;#cccccc&quot;&gt;%c4Description%&lt;/font&gt;&lt;/div&gt;" id="JKiIZta1AgnHO22XSfvL-3">
          <mxCell style="rounded=1;whiteSpace=wrap;html=1;labelBackgroundColor=none;fillColor=#1061B0;fontColor=#ffffff;align=center;arcSize=10;strokeColor=#0D5091;metaEdit=1;resizable=0;points=[[0.25,0,0],[0.5,0,0],[0.75,0,0],[1,0.25,0],[1,0.5,0],[1,0.75,0],[0.75,1,0],[0.5,1,0],[0.25,1,0],[0,0.75,0],[0,0.5,0],[0,0.25,0]];fontSize=16;" parent="n138znTcwOguHpTBxl-C-12" vertex="1">
            <mxGeometry x="370" y="280" width="240" height="120" as="geometry" />
          </mxCell>
        </object>
        <object placeholders="1" c4Name="Infor M3" c4Type="ERP" c4Description="Business data collection " label="&lt;font style=&quot;font-size: 16px&quot;&gt;&lt;b&gt;%c4Name%&lt;/b&gt;&lt;/font&gt;&lt;div&gt;[%c4Type%]&lt;/div&gt;&lt;br&gt;&lt;div&gt;&lt;font style=&quot;font-size: 11px&quot;&gt;&lt;font color=&quot;#cccccc&quot;&gt;%c4Description%&lt;/font&gt;&lt;/div&gt;" id="JKiIZta1AgnHO22XSfvL-4">
          <mxCell style="rounded=1;whiteSpace=wrap;html=1;labelBackgroundColor=none;fillColor=#8C8496;fontColor=#ffffff;align=center;arcSize=10;strokeColor=#736782;metaEdit=1;resizable=0;points=[[0.25,0,0],[0.5,0,0],[0.75,0,0],[1,0.25,0],[1,0.5,0],[1,0.75,0],[0.75,1,0],[0.5,1,0],[0.25,1,0],[0,0.75,0],[0,0.5,0],[0,0.25,0]];fontSize=16;" parent="n138znTcwOguHpTBxl-C-12" vertex="1">
            <mxGeometry x="370" y="40" width="240" height="120" as="geometry" />
          </mxCell>
        </object>
        <object placeholders="1" c4Name="Production Team Lead " c4Type="Person" c4Description="Receiving schedules, transforming to &#xa;shift assignment" label="&lt;font style=&quot;font-size: 16px&quot;&gt;&lt;b&gt;%c4Name%&lt;/b&gt;&lt;/font&gt;&lt;div&gt;[%c4Type%]&lt;/div&gt;&lt;br&gt;&lt;div&gt;&lt;font style=&quot;font-size: 11px&quot;&gt;&lt;font color=&quot;#cccccc&quot;&gt;%c4Description%&lt;/font&gt;&lt;/div&gt;" id="JKiIZta1AgnHO22XSfvL-5">
          <mxCell style="html=1;fontSize=11;dashed=0;whiteSpace=wrap;fillColor=#083F75;strokeColor=#06315C;fontColor=#ffffff;shape=mxgraph.c4.person2;align=center;metaEdit=1;points=[[0.5,0,0],[1,0.5,0],[1,0.75,0],[0.75,1,0],[0.5,1,0],[0.25,1,0],[0,0.75,0],[0,0.5,0]];resizable=0;" parent="n138znTcwOguHpTBxl-C-12" vertex="1">
            <mxGeometry x="780" y="30" width="200" height="180" as="geometry" />
          </mxCell>
        </object>
        <object placeholders="1" c4Type="Relationship" c4Technology="VBA" c4Description="Clear, sort, transform data" label="&lt;div style=&quot;text-align: left&quot;&gt;&lt;div style=&quot;text-align: center&quot;&gt;&lt;b&gt;%c4Description%&lt;/b&gt;&lt;/div&gt;&lt;div style=&quot;text-align: center&quot;&gt;[%c4Technology%]&lt;/div&gt;&lt;/div&gt;" id="JKiIZta1AgnHO22XSfvL-6">
          <mxCell style="endArrow=blockThin;html=1;fontSize=10;fontColor=#404040;strokeWidth=1;endFill=1;strokeColor=#828282;elbow=vertical;metaEdit=1;endSize=14;startSize=14;jumpStyle=arc;jumpSize=16;rounded=0;exitX=1;exitY=0.75;exitDx=0;exitDy=0;exitPerimeter=0;entryX=0;entryY=0.5;entryDx=0;entryDy=0;entryPerimeter=0;dashed=1;dashPattern=8 8;" parent="n138znTcwOguHpTBxl-C-12" source="JKiIZta1AgnHO22XSfvL-2" target="JKiIZta1AgnHO22XSfvL-3" edge="1">
            <mxGeometry width="240" relative="1" as="geometry">
              <mxPoint x="280" y="210" as="sourcePoint" />
              <mxPoint x="520" y="210" as="targetPoint" />
            </mxGeometry>
          </mxCell>
        </object>
        <object placeholders="1" c4Type="Relationship" c4Technology="ERP, Outlook, XML file " c4Description="Collect data" label="&lt;div style=&quot;text-align: left&quot;&gt;&lt;div style=&quot;text-align: center&quot;&gt;&lt;b&gt;%c4Description%&lt;/b&gt;&lt;/div&gt;&lt;div style=&quot;text-align: center&quot;&gt;[%c4Technology%]&lt;/div&gt;&lt;/div&gt;" id="JKiIZta1AgnHO22XSfvL-7">
          <mxCell style="endArrow=blockThin;html=1;fontSize=10;fontColor=#404040;strokeWidth=1;endFill=1;strokeColor=#828282;elbow=vertical;metaEdit=1;endSize=14;startSize=14;jumpStyle=arc;jumpSize=16;rounded=0;exitX=0;exitY=0.5;exitDx=0;exitDy=0;exitPerimeter=0;entryX=1;entryY=0.75;entryDx=0;entryDy=0;entryPerimeter=0;dashed=1;dashPattern=8 8;" parent="n138znTcwOguHpTBxl-C-12" target="JKiIZta1AgnHO22XSfvL-2" edge="1">
            <mxGeometry x="-0.0019" width="240" relative="1" as="geometry">
              <mxPoint x="380" y="90" as="sourcePoint" />
              <mxPoint x="250" y="219.9799999999999" as="targetPoint" />
              <mxPoint as="offset" />
            </mxGeometry>
          </mxCell>
        </object>
        <object placeholders="1" c4Type="Relationship" c4Technology="Outlook XML to VBA macros" c4Description="Collect data" label="&lt;div style=&quot;text-align: left&quot;&gt;&lt;div style=&quot;text-align: center&quot;&gt;&lt;b&gt;%c4Description%&lt;/b&gt;&lt;/div&gt;&lt;div style=&quot;text-align: center&quot;&gt;[%c4Technology%]&lt;/div&gt;&lt;/div&gt;" id="JKiIZta1AgnHO22XSfvL-8">
          <mxCell style="endArrow=blockThin;html=1;fontSize=10;fontColor=#404040;strokeWidth=1;endFill=1;strokeColor=#828282;elbow=vertical;metaEdit=1;endSize=14;startSize=14;jumpStyle=arc;jumpSize=16;rounded=0;exitX=0.5;exitY=1;exitDx=0;exitDy=0;exitPerimeter=0;entryX=0.5;entryY=0;entryDx=0;entryDy=0;entryPerimeter=0;dashed=1;dashPattern=8 8;" parent="n138znTcwOguHpTBxl-C-12" source="JKiIZta1AgnHO22XSfvL-4" target="JKiIZta1AgnHO22XSfvL-3" edge="1">
            <mxGeometry width="240" relative="1" as="geometry">
              <mxPoint x="430" y="230" as="sourcePoint" />
              <mxPoint x="670" y="230" as="targetPoint" />
            </mxGeometry>
          </mxCell>
        </object>
        <object placeholders="1" c4Type="Relationship" c4Technology="VBA, Outlook" c4Description="Sorted data output " label="&lt;div style=&quot;text-align: left&quot;&gt;&lt;div style=&quot;text-align: center&quot;&gt;&lt;b&gt;%c4Description%&lt;/b&gt;&lt;/div&gt;&lt;div style=&quot;text-align: center&quot;&gt;[%c4Technology%]&lt;/div&gt;&lt;/div&gt;" id="JKiIZta1AgnHO22XSfvL-9">
          <mxCell style="endArrow=blockThin;html=1;fontSize=10;fontColor=#404040;strokeWidth=1;endFill=1;strokeColor=#828282;elbow=vertical;metaEdit=1;endSize=14;startSize=14;jumpStyle=arc;jumpSize=16;rounded=0;exitX=1;exitY=0.5;exitDx=0;exitDy=0;exitPerimeter=0;entryX=0;entryY=0.75;entryDx=0;entryDy=0;entryPerimeter=0;dashed=1;dashPattern=8 8;" parent="n138znTcwOguHpTBxl-C-12" source="JKiIZta1AgnHO22XSfvL-3" target="JKiIZta1AgnHO22XSfvL-5" edge="1">
            <mxGeometry x="0.001" width="240" relative="1" as="geometry">
              <mxPoint x="660" y="360" as="sourcePoint" />
              <mxPoint x="900" y="360" as="targetPoint" />
              <mxPoint as="offset" />
            </mxGeometry>
          </mxCell>
        </object>
        <object placeholders="1" c4Name="3PA - Production Plan Analysis" c4Type="SystemScopeBoundary" c4Application="Software System" label="&lt;font style=&quot;font-size: 16px&quot;&gt;&lt;b&gt;&lt;div style=&quot;text-align: left&quot;&gt;%c4Name%&lt;/div&gt;&lt;/b&gt;&lt;/font&gt;&lt;div style=&quot;text-align: left&quot;&gt;[%c4Application%]&lt;/div&gt;" id="JKiIZta1AgnHO22XSfvL-12">
          <mxCell style="rounded=1;fontSize=11;whiteSpace=wrap;html=1;dashed=1;arcSize=20;fillColor=none;strokeColor=#666666;fontColor=#333333;labelBackgroundColor=none;align=left;verticalAlign=bottom;labelBorderColor=none;spacingTop=0;spacing=10;dashPattern=8 4;metaEdit=1;rotatable=0;perimeter=rectanglePerimeter;noLabel=0;labelPadding=0;allowArrows=0;connectable=0;expand=0;recursiveResize=0;editable=1;pointerEvents=0;absoluteArcSize=1;points=[[0.25,0,0],[0.5,0,0],[0.75,0,0],[1,0.25,0],[1,0.5,0],[1,0.75,0],[0.75,1,0],[0.5,1,0],[0.25,1,0],[0,0.75,0],[0,0.5,0],[0,0.25,0]];" parent="n138znTcwOguHpTBxl-C-12" vertex="1">
            <mxGeometry x="350" y="270" width="1000" height="560" as="geometry" />
          </mxCell>
        </object>
        <object placeholders="1" c4Type="DB" c4Container="Container" c4Technology="mySQL, MS Access" c4Description="Store product &amp; order data " label="&lt;font style=&quot;font-size: 16px&quot;&gt;&lt;b&gt;%c4Type%&lt;/b&gt;&lt;/font&gt;&lt;div&gt;[%c4Container%:&amp;nbsp;%c4Technology%]&lt;/div&gt;&lt;br&gt;&lt;div&gt;&lt;font style=&quot;font-size: 11px&quot;&gt;&lt;font&gt;%c4Description%&lt;/font&gt;&lt;/font&gt;&lt;/div&gt;" id="JKiIZta1AgnHO22XSfvL-13">
          <mxCell style="shape=cylinder3;size=15;whiteSpace=wrap;html=1;boundedLbl=1;rounded=0;labelBackgroundColor=none;fillColor=#fff2cc;fontSize=12;align=center;strokeColor=#d6b656;metaEdit=1;points=[[0.5,0,0],[1,0.25,0],[1,0.5,0],[1,0.75,0],[0.5,1,0],[0,0.75,0],[0,0.5,0],[0,0.25,0]];resizable=0;fontColor=default;" parent="n138znTcwOguHpTBxl-C-12" vertex="1">
            <mxGeometry x="370" y="550" width="240" height="120" as="geometry" />
          </mxCell>
        </object>
        <object placeholders="1" c4Name="Schedule tool" c4Type="Container" c4Technology="VBA, Python, mySQL, MS Access " c4Description="Fill schedule with data rom M3" label="&lt;font style=&quot;font-size: 16px&quot;&gt;&lt;b&gt;%c4Name%&lt;/b&gt;&lt;/font&gt;&lt;div&gt;[%c4Type%: %c4Technology%]&lt;/div&gt;&lt;br&gt;&lt;div&gt;&lt;font style=&quot;font-size: 11px&quot;&gt;&lt;font color=&quot;#E6E6E6&quot;&gt;%c4Description%&lt;/font&gt;&lt;/div&gt;" id="JKiIZta1AgnHO22XSfvL-14">
          <mxCell style="rounded=1;whiteSpace=wrap;html=1;fontSize=11;labelBackgroundColor=none;fillColor=#23A2D9;fontColor=#ffffff;align=center;arcSize=10;strokeColor=#0E7DAD;metaEdit=1;resizable=0;points=[[0.25,0,0],[0.5,0,0],[0.75,0,0],[1,0.25,0],[1,0.5,0],[1,0.75,0],[0.75,1,0],[0.5,1,0],[0.25,1,0],[0,0.75,0],[0,0.5,0],[0,0.25,0]];" parent="n138znTcwOguHpTBxl-C-12" vertex="1">
            <mxGeometry x="730" y="620" width="240" height="120" as="geometry" />
          </mxCell>
        </object>
        <object placeholders="1" c4Type="Visualisation tool" c4Container="Container" c4Technology="VBA, Excel, ?SPA?" c4Description="Show capacity for each W/C, plant capacity, forecast for manufacturing orders on each week" label="&lt;font style=&quot;font-size: 16px&quot;&gt;&lt;b&gt;%c4Type%&lt;/b&gt;&lt;/font&gt;&lt;div&gt;[%c4Container%:&amp;nbsp;%c4Technology%]&lt;/div&gt;&lt;br&gt;&lt;div&gt;&lt;font style=&quot;font-size: 11px&quot;&gt;&lt;font color=&quot;#E6E6E6&quot;&gt;%c4Description%&lt;/font&gt;&lt;/div&gt;" id="JKiIZta1AgnHO22XSfvL-15">
          <mxCell style="shape=mxgraph.c4.webBrowserContainer2;whiteSpace=wrap;html=1;boundedLbl=1;rounded=0;labelBackgroundColor=none;strokeColor=#118ACD;fillColor=#23A2D9;strokeColor=#118ACD;strokeColor2=#0E7DAD;fontSize=12;fontColor=#ffffff;align=center;metaEdit=1;points=[[0.5,0,0],[1,0.25,0],[1,0.5,0],[1,0.75,0],[0.5,1,0],[0,0.75,0],[0,0.5,0],[0,0.25,0]];resizable=0;" parent="n138znTcwOguHpTBxl-C-12" vertex="1">
            <mxGeometry x="730" y="330" width="240" height="160" as="geometry" />
          </mxCell>
        </object>
        <object placeholders="1" c4Name="Placefinder" c4Type="Container" c4Technology="VBA, Python, MS Access, mySQL" c4Description="Analys data for each future month and place orders in available dates " label="&lt;font style=&quot;font-size: 16px&quot;&gt;&lt;b&gt;%c4Name%&lt;/b&gt;&lt;/font&gt;&lt;div&gt;[%c4Type%: %c4Technology%]&lt;/div&gt;&lt;br&gt;&lt;div&gt;&lt;font style=&quot;font-size: 11px&quot;&gt;&lt;font&gt;%c4Description%&lt;/font&gt;&lt;/font&gt;&lt;/div&gt;" id="JKiIZta1AgnHO22XSfvL-16">
          <mxCell style="rounded=1;whiteSpace=wrap;html=1;fontSize=11;labelBackgroundColor=none;align=center;arcSize=10;metaEdit=1;resizable=0;points=[[0.25,0,0],[0.5,0,0],[0.75,0,0],[1,0.25,0],[1,0.5,0],[1,0.75,0],[0.75,1,0],[0.5,1,0],[0.25,1,0],[0,0.75,0],[0,0.5,0],[0,0.25,0]];fillColor=#fff2cc;strokeColor=#d6b656;fontColor=default;" parent="n138znTcwOguHpTBxl-C-12" vertex="1">
            <mxGeometry x="1070" y="470" width="240" height="120" as="geometry" />
          </mxCell>
        </object>
        <object placeholders="1" c4Type="Relationship" c4Description="Collect data from M3" label="&lt;div style=&quot;text-align: left&quot;&gt;&lt;div style=&quot;text-align: center&quot;&gt;&lt;b&gt;%c4Description%&lt;/b&gt;&lt;/div&gt;" id="JKiIZta1AgnHO22XSfvL-17">
          <mxCell style="endArrow=blockThin;html=1;fontSize=10;fontColor=#404040;strokeWidth=1;endFill=1;strokeColor=#828282;elbow=vertical;metaEdit=1;endSize=14;startSize=14;jumpStyle=arc;jumpSize=16;rounded=0;exitX=0.5;exitY=1;exitDx=0;exitDy=0;exitPerimeter=0;dashed=1;dashPattern=8 8;" parent="n138znTcwOguHpTBxl-C-12" source="JKiIZta1AgnHO22XSfvL-3" edge="1">
            <mxGeometry width="240" relative="1" as="geometry">
              <mxPoint x="510" y="480" as="sourcePoint" />
              <mxPoint x="490" y="550" as="targetPoint" />
            </mxGeometry>
          </mxCell>
        </object>
        <object placeholders="1" c4Type="Relationship" c4Description="Trans data to schedule" label="&lt;div style=&quot;text-align: left&quot;&gt;&lt;div style=&quot;text-align: center&quot;&gt;&lt;b&gt;%c4Description%&lt;/b&gt;&lt;/div&gt;" id="JKiIZta1AgnHO22XSfvL-18">
          <mxCell style="endArrow=blockThin;html=1;fontSize=10;fontColor=#404040;strokeWidth=1;endFill=1;strokeColor=#828282;elbow=vertical;metaEdit=1;endSize=14;startSize=14;jumpStyle=arc;jumpSize=16;rounded=0;exitX=1;exitY=0.5;exitDx=0;exitDy=0;exitPerimeter=0;dashed=1;dashPattern=8 8;entryX=0;entryY=0.5;entryDx=0;entryDy=0;entryPerimeter=0;verticalAlign=middle;" parent="n138znTcwOguHpTBxl-C-12" source="JKiIZta1AgnHO22XSfvL-13" target="JKiIZta1AgnHO22XSfvL-14" edge="1">
            <mxGeometry width="240" relative="1" as="geometry">
              <mxPoint x="650" y="630" as="sourcePoint" />
              <mxPoint x="650" y="780" as="targetPoint" />
            </mxGeometry>
          </mxCell>
        </object>
        <object placeholders="1" c4Type="Relationship" c4Description="Place orders in available capacity " label="&lt;div style=&quot;text-align: left&quot;&gt;&lt;div style=&quot;text-align: center&quot;&gt;&lt;b&gt;%c4Description%&lt;/b&gt;&lt;/div&gt;" id="JKiIZta1AgnHO22XSfvL-20">
          <mxCell style="endArrow=blockThin;html=1;fontSize=10;fontColor=#404040;strokeWidth=1;endFill=1;strokeColor=#828282;elbow=vertical;metaEdit=1;endSize=14;startSize=14;jumpStyle=arc;jumpSize=16;rounded=0;exitX=0;exitY=0.5;exitDx=0;exitDy=0;exitPerimeter=0;dashed=1;dashPattern=8 8;entryX=1;entryY=0.5;entryDx=0;entryDy=0;entryPerimeter=0;" parent="n138znTcwOguHpTBxl-C-12" source="JKiIZta1AgnHO22XSfvL-16" target="JKiIZta1AgnHO22XSfvL-14" edge="1">
            <mxGeometry width="240" relative="1" as="geometry">
              <mxPoint x="620" y="620" as="sourcePoint" />
              <mxPoint x="1010" y="570" as="targetPoint" />
            </mxGeometry>
          </mxCell>
        </object>
        <object placeholders="1" c4Type="Relationship" c4Description="Show schedule for current orders" label="&lt;div style=&quot;text-align: left&quot;&gt;&lt;div style=&quot;text-align: center&quot;&gt;&lt;b&gt;%c4Description%&lt;/b&gt;&lt;/div&gt;" id="JKiIZta1AgnHO22XSfvL-22">
          <mxCell style="endArrow=blockThin;html=1;fontSize=10;fontColor=#404040;strokeWidth=1;endFill=1;strokeColor=#828282;elbow=vertical;metaEdit=1;endSize=14;startSize=14;jumpStyle=arc;jumpSize=16;rounded=0;exitX=0.5;exitY=0;exitDx=0;exitDy=0;exitPerimeter=0;dashed=1;dashPattern=8 8;entryX=0.5;entryY=1;entryDx=0;entryDy=0;entryPerimeter=0;" parent="n138znTcwOguHpTBxl-C-12" source="JKiIZta1AgnHO22XSfvL-14" target="JKiIZta1AgnHO22XSfvL-15" edge="1">
            <mxGeometry width="240" relative="1" as="geometry">
              <mxPoint x="1220" y="560" as="sourcePoint" />
              <mxPoint x="980" y="420" as="targetPoint" />
            </mxGeometry>
          </mxCell>
        </object>
        <object placeholders="1" c4Type="Relationship" c4Description="Trans data to orders" label="&lt;div style=&quot;text-align: left&quot;&gt;&lt;div style=&quot;text-align: center&quot;&gt;&lt;b&gt;%c4Description%&lt;/b&gt;&lt;/div&gt;" id="JKiIZta1AgnHO22XSfvL-23">
          <mxCell style="endArrow=blockThin;html=1;fontSize=10;fontColor=#404040;strokeWidth=1;endFill=1;strokeColor=#828282;elbow=vertical;metaEdit=1;endSize=14;startSize=14;jumpStyle=arc;jumpSize=16;rounded=0;exitX=0.5;exitY=1;exitDx=0;exitDy=0;exitPerimeter=0;dashed=1;dashPattern=8 8;entryX=0.5;entryY=1;entryDx=0;entryDy=0;entryPerimeter=0;edgeStyle=orthogonalEdgeStyle;" parent="n138znTcwOguHpTBxl-C-12" source="JKiIZta1AgnHO22XSfvL-13" target="JKiIZta1AgnHO22XSfvL-16" edge="1">
            <mxGeometry width="240" relative="1" as="geometry">
              <mxPoint x="860" y="630" as="sourcePoint" />
              <mxPoint x="860" y="500" as="targetPoint" />
              <Array as="points">
                <mxPoint x="490" y="770" />
                <mxPoint x="1190" y="770" />
              </Array>
            </mxGeometry>
          </mxCell>
        </object>
        <object placeholders="1" c4Type="Relationship" c4Description="Visual presentation" label="&lt;div style=&quot;text-align: left&quot;&gt;&lt;div style=&quot;text-align: center&quot;&gt;&lt;b&gt;%c4Description%&lt;/b&gt;&lt;/div&gt;" id="JKiIZta1AgnHO22XSfvL-24">
          <mxCell style="endArrow=blockThin;html=1;fontSize=10;fontColor=#404040;strokeWidth=1;endFill=1;strokeColor=#828282;elbow=vertical;metaEdit=1;endSize=14;startSize=14;jumpStyle=arc;jumpSize=16;rounded=0;exitX=0;exitY=0.5;exitDx=0;exitDy=0;exitPerimeter=0;dashed=1;dashPattern=8 8;entryX=1;entryY=0.5;entryDx=0;entryDy=0;entryPerimeter=0;" parent="n138znTcwOguHpTBxl-C-12" source="JKiIZta1AgnHO22XSfvL-15" target="JKiIZta1AgnHO22XSfvL-3" edge="1">
            <mxGeometry width="240" relative="1" as="geometry">
              <mxPoint x="1220" y="560" as="sourcePoint" />
              <mxPoint x="980" y="420" as="targetPoint" />
            </mxGeometry>
          </mxCell>
        </object>
        <object placeholders="1" c4Name="Management" c4Type="User" c4Description="Decision making" label="&lt;font style=&quot;font-size: 16px&quot;&gt;&lt;b&gt;%c4Name%&lt;/b&gt;&lt;/font&gt;&lt;div&gt;[%c4Type%]&lt;/div&gt;&lt;br&gt;&lt;div&gt;&lt;font style=&quot;font-size: 11px&quot;&gt;&lt;font color=&quot;#cccccc&quot;&gt;%c4Description%&lt;/font&gt;&lt;/div&gt;" id="n138znTcwOguHpTBxl-C-3">
          <mxCell style="html=1;fontSize=11;dashed=0;whiteSpace=wrap;fillColor=#083F75;strokeColor=#06315C;fontColor=#ffffff;shape=mxgraph.c4.person2;align=center;metaEdit=1;points=[[0.5,0,0],[1,0.5,0],[1,0.75,0],[0.75,1,0],[0.5,1,0],[0.25,1,0],[0,0.75,0],[0,0.5,0]];resizable=0;" parent="n138znTcwOguHpTBxl-C-12" vertex="1">
            <mxGeometry x="1080" y="40" width="200" height="180" as="geometry" />
          </mxCell>
        </object>
        <object placeholders="1" c4Type="Relationship" c4Technology="VBA, Outlook, PowerBI" c4Description="Visual output" label="&lt;div style=&quot;text-align: left&quot;&gt;&lt;div style=&quot;text-align: center&quot;&gt;&lt;b&gt;%c4Description%&lt;/b&gt;&lt;/div&gt;&lt;div style=&quot;text-align: center&quot;&gt;[%c4Technology%]&lt;/div&gt;&lt;/div&gt;" id="n138znTcwOguHpTBxl-C-4">
          <mxCell style="endArrow=blockThin;html=1;fontSize=10;fontColor=#404040;strokeWidth=1;endFill=1;strokeColor=#828282;elbow=vertical;metaEdit=1;endSize=14;startSize=14;jumpStyle=arc;jumpSize=16;rounded=0;dashed=1;dashPattern=8 8;exitX=1;exitY=0.5;exitDx=0;exitDy=0;exitPerimeter=0;entryX=0;entryY=0.75;entryDx=0;entryDy=0;entryPerimeter=0;" parent="n138znTcwOguHpTBxl-C-12" source="JKiIZta1AgnHO22XSfvL-3" target="n138znTcwOguHpTBxl-C-3" edge="1">
            <mxGeometry x="0.0014" width="240" relative="1" as="geometry">
              <mxPoint x="660" y="153" as="sourcePoint" />
              <mxPoint x="1030" y="153" as="targetPoint" />
              <mxPoint as="offset" />
            </mxGeometry>
          </mxCell>
        </object>
        <object placeholders="1" c4Type="Relationship" c4Description="Collect data from M3" label="&lt;div style=&quot;text-align: left&quot;&gt;&lt;div style=&quot;text-align: center&quot;&gt;&lt;b&gt;%c4Description%&lt;/b&gt;&lt;/div&gt;" id="n138znTcwOguHpTBxl-C-5">
          <mxCell style="endArrow=blockThin;html=1;fontSize=10;fontColor=#404040;strokeWidth=1;endFill=1;strokeColor=#828282;elbow=vertical;metaEdit=1;endSize=14;startSize=14;jumpStyle=arc;jumpSize=16;rounded=0;exitX=0.5;exitY=1;exitDx=0;exitDy=0;exitPerimeter=0;dashed=1;dashPattern=8 8;entryX=0.5;entryY=0;entryDx=0;entryDy=0;entryPerimeter=0;" parent="n138znTcwOguHpTBxl-C-12" source="JKiIZta1AgnHO22XSfvL-3" target="JKiIZta1AgnHO22XSfvL-14" edge="1">
            <mxGeometry width="240" relative="1" as="geometry">
              <mxPoint x="500" y="410" as="sourcePoint" />
              <mxPoint x="500" y="560" as="targetPoint" />
            </mxGeometry>
          </mxCell>
        </object>
        <mxCell id="n138znTcwOguHpTBxl-C-14" value="" style="group" parent="1" vertex="1" connectable="0">
          <mxGeometry x="-1060" y="270" width="1385" height="900" as="geometry" />
        </mxCell>
        <object placeholders="1" c4Name="Schedule tool" c4Type="Container" c4Technology="VBA, Python, mySQL, MS Access " c4Description="Fill schedule with data rom M3" label="&lt;font style=&quot;font-size: 16px&quot;&gt;&lt;b&gt;%c4Name%&lt;/b&gt;&lt;/font&gt;&lt;div&gt;[%c4Type%: %c4Technology%]&lt;/div&gt;&lt;br&gt;&lt;div&gt;&lt;font style=&quot;font-size: 11px&quot;&gt;&lt;font color=&quot;#E6E6E6&quot;&gt;%c4Description%&lt;/font&gt;&lt;/div&gt;" id="orw1yc3T5QVGmbpuPVik-2">
          <mxCell style="rounded=1;whiteSpace=wrap;html=1;fontSize=11;labelBackgroundColor=none;fillColor=#23A2D9;fontColor=#ffffff;align=center;arcSize=10;strokeColor=#0E7DAD;metaEdit=1;resizable=0;points=[[0.25,0,0],[0.5,0,0],[0.75,0,0],[1,0.25,0],[1,0.5,0],[1,0.75,0],[0.75,1,0],[0.5,1,0],[0.25,1,0],[0,0.75,0],[0,0.5,0],[0,0.25,0]];" parent="n138znTcwOguHpTBxl-C-14" vertex="1">
            <mxGeometry x="370" y="40" width="240" height="120" as="geometry" />
          </mxCell>
        </object>
        <object placeholders="1" c4Name="Placefinder" c4Type="Container" c4Technology="VBA, Python, MS Access, mySQL" c4Description="Analys data for each future month and place orders in available dates " label="&lt;font style=&quot;font-size: 16px&quot;&gt;&lt;b&gt;%c4Name%&lt;/b&gt;&lt;/font&gt;&lt;div&gt;[%c4Type%: %c4Technology%]&lt;/div&gt;&lt;br&gt;&lt;div&gt;&lt;font style=&quot;font-size: 11px&quot;&gt;&lt;font&gt;%c4Description%&lt;/font&gt;&lt;/font&gt;&lt;/div&gt;" id="orw1yc3T5QVGmbpuPVik-3">
          <mxCell style="rounded=1;whiteSpace=wrap;html=1;fontSize=11;labelBackgroundColor=none;align=center;arcSize=10;metaEdit=1;resizable=0;points=[[0.25,0,0],[0.5,0,0],[0.75,0,0],[1,0.25,0],[1,0.5,0],[1,0.75,0],[0.75,1,0],[0.5,1,0],[0.25,1,0],[0,0.75,0],[0,0.5,0],[0,0.25,0]];fillColor=#fff2cc;strokeColor=#d6b656;fontColor=default;" parent="n138znTcwOguHpTBxl-C-14" vertex="1">
            <mxGeometry x="1090" y="40" width="240" height="120" as="geometry" />
          </mxCell>
        </object>
        <object placeholders="1" c4Type="Visualisation tool" c4Container="Container" c4Technology="VBA, Excel, ?SPA?" c4Description="Show capacity for each W/C, plant capacity, forecast for manufacturing orders on each week" label="&lt;font style=&quot;font-size: 16px&quot;&gt;&lt;b&gt;%c4Type%&lt;/b&gt;&lt;/font&gt;&lt;div&gt;[%c4Container%:&amp;nbsp;%c4Technology%]&lt;/div&gt;&lt;br&gt;&lt;div&gt;&lt;font style=&quot;font-size: 11px&quot;&gt;&lt;font color=&quot;#E6E6E6&quot;&gt;%c4Description%&lt;/font&gt;&lt;/div&gt;" id="orw1yc3T5QVGmbpuPVik-4">
          <mxCell style="shape=mxgraph.c4.webBrowserContainer2;whiteSpace=wrap;html=1;boundedLbl=1;rounded=0;labelBackgroundColor=none;strokeColor=#118ACD;fillColor=#23A2D9;strokeColor=#118ACD;strokeColor2=#0E7DAD;fontSize=12;fontColor=#ffffff;align=center;metaEdit=1;points=[[0.5,0,0],[1,0.25,0],[1,0.5,0],[1,0.75,0],[0.5,1,0],[0,0.75,0],[0,0.5,0],[0,0.25,0]];resizable=0;" parent="n138znTcwOguHpTBxl-C-14" vertex="1">
            <mxGeometry x="730" y="20" width="240" height="160" as="geometry" />
          </mxCell>
        </object>
        <mxCell id="orw1yc3T5QVGmbpuPVik-5" value="&lt;font style=&quot;font-size: 16px;&quot;&gt;&lt;b&gt;Month fill module&amp;nbsp;&lt;br&gt;&lt;/b&gt;&lt;/font&gt;&lt;br&gt;If check-list CO = M3 CO, then place it on selected month" style="rounded=0;whiteSpace=wrap;html=1;" parent="n138znTcwOguHpTBxl-C-14" vertex="1">
          <mxGeometry x="380" y="240" width="210" height="140" as="geometry" />
        </mxCell>
        <object placeholders="1" c4Name="Current 3PA module" c4Type="ContainerScopeBoundary" c4Application="Use: data presenation, storage" label="&lt;font style=&quot;font-size: 16px&quot;&gt;&lt;b&gt;&lt;div style=&quot;text-align: left&quot;&gt;%c4Name%&lt;/div&gt;&lt;/b&gt;&lt;/font&gt;&lt;div style=&quot;text-align: left&quot;&gt;[%c4Application%]&lt;/div&gt;" id="orw1yc3T5QVGmbpuPVik-7">
          <mxCell style="rounded=1;fontSize=11;whiteSpace=wrap;html=1;dashed=1;arcSize=20;fillColor=none;strokeColor=#666666;fontColor=#333333;labelBackgroundColor=none;align=left;verticalAlign=bottom;labelBorderColor=none;spacingTop=0;spacing=10;dashPattern=8 4;metaEdit=1;rotatable=0;perimeter=rectanglePerimeter;noLabel=0;labelPadding=0;allowArrows=0;connectable=0;expand=0;recursiveResize=0;editable=1;pointerEvents=0;absoluteArcSize=1;points=[[0.25,0,0],[0.5,0,0],[0.75,0,0],[1,0.25,0],[1,0.5,0],[1,0.75,0],[0.75,1,0],[0.5,1,0],[0.25,1,0],[0,0.75,0],[0,0.5,0],[0,0.25,0]];" parent="n138znTcwOguHpTBxl-C-14" vertex="1">
            <mxGeometry x="360" width="670" height="900" as="geometry" />
          </mxCell>
        </object>
        <mxCell id="orw1yc3T5QVGmbpuPVik-8" value="&lt;font style=&quot;font-size: 16px;&quot;&gt;&lt;b&gt;Check similarity module&lt;br&gt;&lt;/b&gt;&lt;/font&gt;&lt;br&gt;Fill monthly report with corresponded data&lt;br&gt;Levenshtein distance" style="rounded=0;whiteSpace=wrap;html=1;" parent="n138znTcwOguHpTBxl-C-14" vertex="1">
          <mxGeometry x="380" y="460" width="210" height="140" as="geometry" />
        </mxCell>
        <mxCell id="orw1yc3T5QVGmbpuPVik-9" value="&lt;font style=&quot;font-size: 16px;&quot;&gt;&lt;b&gt;Year fill module&amp;nbsp;&lt;br&gt;&lt;/b&gt;&lt;/font&gt;&lt;br&gt;Fill year report with clean data from month module" style="rounded=0;whiteSpace=wrap;html=1;" parent="n138znTcwOguHpTBxl-C-14" vertex="1">
          <mxGeometry x="745" y="240" width="210" height="140" as="geometry" />
        </mxCell>
        <mxCell id="orw1yc3T5QVGmbpuPVik-10" value="&lt;font style=&quot;font-size: 16px;&quot;&gt;&lt;b&gt;W/C hours module&lt;br&gt;&lt;/b&gt;&lt;/font&gt;&lt;br&gt;If month report CO = M3 data from W/C, then place it in W/C report" style="rounded=0;whiteSpace=wrap;html=1;" parent="n138znTcwOguHpTBxl-C-14" vertex="1">
          <mxGeometry x="380" y="680" width="210" height="140" as="geometry" />
        </mxCell>
        <object placeholders="1" c4Type="DB" c4Container="Container" c4Technology="mySQL, MS Access" c4Description="Store product &amp; order data " label="&lt;font style=&quot;font-size: 16px&quot;&gt;&lt;b&gt;%c4Type%&lt;/b&gt;&lt;/font&gt;&lt;div&gt;[%c4Container%:&amp;nbsp;%c4Technology%]&lt;/div&gt;&lt;br&gt;&lt;div&gt;&lt;font style=&quot;font-size: 11px&quot;&gt;&lt;font&gt;%c4Description%&lt;/font&gt;&lt;/font&gt;&lt;/div&gt;" id="orw1yc3T5QVGmbpuPVik-12">
          <mxCell style="shape=cylinder3;size=15;whiteSpace=wrap;html=1;boundedLbl=1;rounded=0;labelBackgroundColor=none;fillColor=#fff2cc;fontSize=12;align=center;strokeColor=#d6b656;metaEdit=1;points=[[0.5,0,0],[1,0.25,0],[1,0.5,0],[1,0.75,0],[0.5,1,0],[0,0.75,0],[0,0.5,0],[0,0.25,0]];resizable=0;fontColor=default;" parent="n138znTcwOguHpTBxl-C-14" vertex="1">
            <mxGeometry x="40" y="40" width="240" height="120" as="geometry" />
          </mxCell>
        </object>
        <mxCell id="orw1yc3T5QVGmbpuPVik-13" value="&lt;font style=&quot;font-size: 16px;&quot;&gt;&lt;b&gt;Available capacity module&lt;br&gt;&lt;/b&gt;&lt;/font&gt;&lt;br&gt;Check if month has&amp;nbsp;free capacity and then place projects in there with correlation to projects %" style="rounded=0;whiteSpace=wrap;html=1;" parent="n138znTcwOguHpTBxl-C-14" vertex="1">
          <mxGeometry x="1105" y="240" width="210" height="140" as="geometry" />
        </mxCell>
        <mxCell id="orw1yc3T5QVGmbpuPVik-14" value="&lt;font style=&quot;font-size: 16px;&quot;&gt;&lt;b&gt;Overflow module&lt;br&gt;&lt;/b&gt;&lt;/font&gt;&lt;br&gt;Check if month has overflow, if true = reschedule" style="rounded=0;whiteSpace=wrap;html=1;" parent="n138znTcwOguHpTBxl-C-14" vertex="1">
          <mxGeometry x="1105" y="460" width="210" height="140" as="geometry" />
        </mxCell>
        <mxCell id="orw1yc3T5QVGmbpuPVik-15" value="&lt;font style=&quot;font-size: 16px;&quot;&gt;&lt;b&gt;Report module&amp;nbsp;&lt;br&gt;&lt;/b&gt;&lt;/font&gt;&lt;br&gt;Store data from M3 reports for W/C hrs, CO numbers, items, names, qty, mass, dates, projects" style="rounded=0;whiteSpace=wrap;html=1;" parent="n138znTcwOguHpTBxl-C-14" vertex="1">
          <mxGeometry x="55" y="240" width="210" height="140" as="geometry" />
        </mxCell>
        <mxCell id="orw1yc3T5QVGmbpuPVik-16" value="&lt;font style=&quot;font-size: 16px;&quot;&gt;&lt;b&gt;Outlook module&amp;nbsp;&lt;br&gt;&lt;/b&gt;&lt;/font&gt;&lt;br&gt;Take data directly from outlook mails&amp;nbsp;" style="rounded=0;whiteSpace=wrap;html=1;" parent="n138znTcwOguHpTBxl-C-14" vertex="1">
          <mxGeometry x="60" y="460" width="210" height="140" as="geometry" />
        </mxCell>
        <object placeholders="1" c4Name="DataBase module" c4Type="ContainerScopeBoundary" c4Application="Module to store data from Infor M3" label="&lt;font style=&quot;font-size: 16px&quot;&gt;&lt;b&gt;&lt;div style=&quot;text-align: left&quot;&gt;%c4Name%&lt;/div&gt;&lt;/b&gt;&lt;/font&gt;&lt;div style=&quot;text-align: left&quot;&gt;[%c4Application%]&lt;/div&gt;" id="orw1yc3T5QVGmbpuPVik-17">
          <mxCell style="rounded=1;fontSize=11;whiteSpace=wrap;html=1;dashed=1;arcSize=20;fillColor=none;strokeColor=#666666;fontColor=#333333;labelBackgroundColor=none;align=left;verticalAlign=bottom;labelBorderColor=none;spacingTop=0;spacing=10;dashPattern=8 4;metaEdit=1;rotatable=0;perimeter=rectanglePerimeter;noLabel=0;labelPadding=0;allowArrows=0;connectable=0;expand=0;recursiveResize=0;editable=1;pointerEvents=0;absoluteArcSize=1;points=[[0.25,0,0],[0.5,0,0],[0.75,0,0],[1,0.25,0],[1,0.5,0],[1,0.75,0],[0.75,1,0],[0.5,1,0],[0.25,1,0],[0,0.75,0],[0,0.5,0],[0,0.25,0]];" parent="n138znTcwOguHpTBxl-C-14" vertex="1">
            <mxGeometry width="330" height="900" as="geometry" />
          </mxCell>
        </object>
        <object placeholders="1" c4Name="Placefinder module" c4Type="ContainerScopeBoundary" c4Application="Module for optimization and 100% usage of space" label="&lt;font style=&quot;font-size: 16px&quot;&gt;&lt;b&gt;&lt;div style=&quot;text-align: left&quot;&gt;%c4Name%&lt;/div&gt;&lt;/b&gt;&lt;/font&gt;&lt;div style=&quot;text-align: left&quot;&gt;[%c4Application%]&lt;/div&gt;" id="orw1yc3T5QVGmbpuPVik-18">
          <mxCell style="rounded=1;fontSize=11;whiteSpace=wrap;html=1;dashed=1;arcSize=20;fillColor=none;strokeColor=#666666;fontColor=#333333;labelBackgroundColor=none;align=left;verticalAlign=bottom;labelBorderColor=none;spacingTop=0;spacing=10;dashPattern=8 4;metaEdit=1;rotatable=0;perimeter=rectanglePerimeter;noLabel=0;labelPadding=0;allowArrows=0;connectable=0;expand=0;recursiveResize=0;editable=1;pointerEvents=0;absoluteArcSize=1;points=[[0.25,0,0],[0.5,0,0],[0.75,0,0],[1,0.25,0],[1,0.5,0],[1,0.75,0],[0.75,1,0],[0.5,1,0],[0.25,1,0],[0,0.75,0],[0,0.5,0],[0,0.25,0]];" parent="n138znTcwOguHpTBxl-C-14" vertex="1">
            <mxGeometry x="1055" width="330" height="900" as="geometry" />
          </mxCell>
        </object>
        <object placeholders="1" c4Type="Relationship" c4Description="Transform data from M3" label="&lt;div style=&quot;text-align: left&quot;&gt;&lt;div style=&quot;text-align: center&quot;&gt;&lt;b&gt;%c4Description%&lt;/b&gt;&lt;/div&gt;" id="orw1yc3T5QVGmbpuPVik-20">
          <mxCell style="endArrow=blockThin;html=1;fontSize=10;fontColor=#404040;strokeWidth=1;endFill=1;strokeColor=#828282;elbow=vertical;metaEdit=1;endSize=14;startSize=14;jumpStyle=arc;jumpSize=16;rounded=0;dashed=1;dashPattern=8 8;entryX=0.5;entryY=0;entryDx=0;entryDy=0;" parent="n138znTcwOguHpTBxl-C-14" target="orw1yc3T5QVGmbpuPVik-15" edge="1">
            <mxGeometry x="-0.6" width="240" relative="1" as="geometry">
              <mxPoint x="160" y="160" as="sourcePoint" />
              <mxPoint x="164.28999999999996" y="310" as="targetPoint" />
              <mxPoint as="offset" />
            </mxGeometry>
          </mxCell>
        </object>
        <object placeholders="1" c4Type="Relationship" c4Description="Send data to 3PA module " label="&lt;div style=&quot;text-align: left&quot;&gt;&lt;div style=&quot;text-align: center&quot;&gt;&lt;b&gt;%c4Description%&lt;/b&gt;&lt;/div&gt;" id="orw1yc3T5QVGmbpuPVik-21">
          <mxCell style="endArrow=blockThin;html=1;fontSize=10;fontColor=#404040;strokeWidth=1;endFill=1;strokeColor=#828282;elbow=vertical;metaEdit=1;endSize=14;startSize=14;jumpStyle=arc;jumpSize=16;rounded=0;dashed=1;dashPattern=8 8;exitX=0.5;exitY=0;exitDx=0;exitDy=0;startArrow=blockThin;startFill=1;targetPerimeterSpacing=0;sourcePerimeterSpacing=0;" parent="n138znTcwOguHpTBxl-C-14" source="orw1yc3T5QVGmbpuPVik-16" edge="1">
            <mxGeometry width="240" relative="1" as="geometry">
              <mxPoint x="120" y="420" as="sourcePoint" />
              <mxPoint x="165" y="380" as="targetPoint" />
              <mxPoint as="offset" />
              <Array as="points" />
            </mxGeometry>
          </mxCell>
        </object>
        <object placeholders="1" c4Type="Relationship" c4Description="Collect data from modules" label="&lt;div style=&quot;text-align: left&quot;&gt;&lt;div style=&quot;text-align: center&quot;&gt;&lt;b&gt;%c4Description%&lt;/b&gt;&lt;/div&gt;" id="orw1yc3T5QVGmbpuPVik-23">
          <mxCell style="endArrow=blockThin;html=1;fontSize=10;fontColor=#404040;strokeWidth=1;endFill=1;strokeColor=#828282;elbow=vertical;metaEdit=1;endSize=14;startSize=14;jumpStyle=arc;jumpSize=16;rounded=0;dashed=1;dashPattern=8 8;entryX=0.5;entryY=0;entryDx=0;entryDy=0;" parent="n138znTcwOguHpTBxl-C-14" edge="1">
            <mxGeometry x="-0.6" width="240" relative="1" as="geometry">
              <mxPoint x="484.40999999999997" y="160" as="sourcePoint" />
              <mxPoint x="484.40999999999997" y="240" as="targetPoint" />
              <mxPoint as="offset" />
            </mxGeometry>
          </mxCell>
        </object>
        <object placeholders="1" c4Type="Relationship" c4Description="Sort data" label="&lt;div style=&quot;text-align: left&quot;&gt;&lt;div style=&quot;text-align: center&quot;&gt;&lt;b&gt;%c4Description%&lt;/b&gt;&lt;/div&gt;" id="orw1yc3T5QVGmbpuPVik-28">
          <mxCell style="endArrow=blockThin;html=1;fontSize=10;fontColor=#404040;strokeWidth=1;endFill=1;strokeColor=#828282;elbow=vertical;metaEdit=1;endSize=14;startSize=14;jumpStyle=arc;jumpSize=16;rounded=0;dashed=1;dashPattern=8 8;entryX=0.5;entryY=0;entryDx=0;entryDy=0;" parent="n138znTcwOguHpTBxl-C-14" edge="1">
            <mxGeometry x="-0.6" width="240" relative="1" as="geometry">
              <mxPoint x="849" y="180" as="sourcePoint" />
              <mxPoint x="849.4100000000001" y="240" as="targetPoint" />
              <mxPoint as="offset" />
            </mxGeometry>
          </mxCell>
        </object>
        <object placeholders="1" c4Type="Relationship" c4Description="Uses" label="&lt;div style=&quot;text-align: left&quot;&gt;&lt;div style=&quot;text-align: center&quot;&gt;&lt;b&gt;%c4Description%&lt;/b&gt;&lt;/div&gt;" id="orw1yc3T5QVGmbpuPVik-30">
          <mxCell style="endArrow=blockThin;html=1;fontSize=10;fontColor=#404040;strokeWidth=1;endFill=1;strokeColor=#828282;elbow=vertical;metaEdit=1;endSize=14;startSize=14;jumpStyle=arc;jumpSize=16;rounded=0;dashed=1;dashPattern=8 8;entryX=0.5;entryY=0;entryDx=0;entryDy=0;" parent="n138znTcwOguHpTBxl-C-14" edge="1">
            <mxGeometry x="-0.6" width="240" relative="1" as="geometry">
              <mxPoint x="1209.4099999999999" y="160" as="sourcePoint" />
              <mxPoint x="1209.4099999999999" y="240" as="targetPoint" />
              <mxPoint as="offset" />
            </mxGeometry>
          </mxCell>
        </object>
        <object placeholders="1" c4Type="Relationship" c4Description="Uses" label="&lt;div style=&quot;text-align: left&quot;&gt;&lt;div style=&quot;text-align: center&quot;&gt;&lt;b&gt;%c4Description%&lt;/b&gt;&lt;/div&gt;" id="orw1yc3T5QVGmbpuPVik-31">
          <mxCell style="endArrow=blockThin;html=1;fontSize=10;fontColor=#404040;strokeWidth=1;endFill=1;strokeColor=#828282;elbow=vertical;metaEdit=1;endSize=14;startSize=14;jumpStyle=arc;jumpSize=16;rounded=0;dashed=1;dashPattern=8 8;entryX=0.5;entryY=0;entryDx=0;entryDy=0;" parent="n138znTcwOguHpTBxl-C-14" edge="1">
            <mxGeometry y="1" width="240" relative="1" as="geometry">
              <mxPoint x="1209.4099999999999" y="380" as="sourcePoint" />
              <mxPoint x="1209.4099999999999" y="460" as="targetPoint" />
              <mxPoint as="offset" />
            </mxGeometry>
          </mxCell>
        </object>
        <object placeholders="1" c4Type="Relationship" c4Description="uses" label="&lt;div style=&quot;text-align: left&quot;&gt;&lt;div style=&quot;text-align: center&quot;&gt;&lt;b&gt;%c4Description%&lt;/b&gt;&lt;/div&gt;" id="orw1yc3T5QVGmbpuPVik-34">
          <mxCell style="endArrow=blockThin;html=1;fontSize=10;fontColor=#404040;strokeWidth=1;endFill=1;strokeColor=#828282;elbow=vertical;metaEdit=1;endSize=14;startSize=14;jumpStyle=arc;jumpSize=16;rounded=0;dashed=1;dashPattern=8 8;entryX=0.5;entryY=0;entryDx=0;entryDy=0;startArrow=blockThin;startFill=1;" parent="n138znTcwOguHpTBxl-C-14" edge="1">
            <mxGeometry width="240" relative="1" as="geometry">
              <mxPoint x="484.40999999999997" y="380" as="sourcePoint" />
              <mxPoint x="484.40999999999997" y="460" as="targetPoint" />
              <mxPoint as="offset" />
            </mxGeometry>
          </mxCell>
        </object>
        <object placeholders="1" c4Type="Relationship" c4Description="uses" label="&lt;div style=&quot;text-align: left&quot;&gt;&lt;div style=&quot;text-align: center&quot;&gt;&lt;b&gt;%c4Description%&lt;/b&gt;&lt;/div&gt;" id="orw1yc3T5QVGmbpuPVik-35">
          <mxCell style="endArrow=blockThin;html=1;fontSize=10;fontColor=#404040;strokeWidth=1;endFill=1;strokeColor=#828282;elbow=vertical;metaEdit=1;endSize=14;startSize=14;jumpStyle=arc;jumpSize=16;rounded=0;dashed=1;dashPattern=8 8;entryX=0.5;entryY=0;entryDx=0;entryDy=0;startArrow=blockThin;startFill=1;" parent="n138znTcwOguHpTBxl-C-14" edge="1">
            <mxGeometry width="240" relative="1" as="geometry">
              <mxPoint x="484.40999999999997" y="600" as="sourcePoint" />
              <mxPoint x="484.40999999999997" y="680" as="targetPoint" />
              <mxPoint as="offset" />
            </mxGeometry>
          </mxCell>
        </object>
        <object placeholders="1" c4Type="Relationship" c4Description="Uses" label="&lt;div style=&quot;text-align: left&quot;&gt;&lt;div style=&quot;text-align: center&quot;&gt;&lt;b&gt;%c4Description%&lt;/b&gt;&lt;/div&gt;" id="orw1yc3T5QVGmbpuPVik-36">
          <mxCell style="endArrow=blockThin;html=1;fontSize=10;fontColor=#404040;strokeWidth=1;endFill=1;strokeColor=#828282;elbow=vertical;metaEdit=1;endSize=14;startSize=14;jumpStyle=arc;jumpSize=16;rounded=0;dashed=1;dashPattern=8 8;entryX=1;entryY=0.5;entryDx=0;entryDy=0;exitX=0.007;exitY=0.41;exitDx=0;exitDy=0;exitPerimeter=0;edgeStyle=orthogonalEdgeStyle;" parent="n138znTcwOguHpTBxl-C-14" source="orw1yc3T5QVGmbpuPVik-4" target="orw1yc3T5QVGmbpuPVik-5" edge="1">
            <mxGeometry x="0.0174" width="240" relative="1" as="geometry">
              <mxPoint x="700" y="400" as="sourcePoint" />
              <mxPoint x="700" y="480" as="targetPoint" />
              <mxPoint x="1" as="offset" />
              <Array as="points">
                <mxPoint x="660" y="86" />
                <mxPoint x="660" y="270" />
                <mxPoint x="620" y="270" />
                <mxPoint x="620" y="310" />
              </Array>
            </mxGeometry>
          </mxCell>
        </object>
        <object placeholders="1" c4Type="Relationship" c4Description="Send sorted data from M3" label="&lt;div style=&quot;text-align: left&quot;&gt;&lt;div style=&quot;text-align: center&quot;&gt;&lt;b&gt;%c4Description%&lt;/b&gt;&lt;/div&gt;" id="orw1yc3T5QVGmbpuPVik-37">
          <mxCell style="endArrow=blockThin;html=1;fontSize=10;fontColor=#404040;strokeWidth=1;endFill=1;strokeColor=#828282;elbow=vertical;metaEdit=1;endSize=14;startSize=14;jumpStyle=arc;jumpSize=16;rounded=0;dashed=1;dashPattern=8 8;exitX=1;exitY=0.5;exitDx=0;exitDy=0;exitPerimeter=0;entryX=0;entryY=0.5;entryDx=0;entryDy=0;edgeStyle=orthogonalEdgeStyle;" parent="n138znTcwOguHpTBxl-C-14" source="orw1yc3T5QVGmbpuPVik-12" target="orw1yc3T5QVGmbpuPVik-10" edge="1">
            <mxGeometry x="-0.0667" width="240" relative="1" as="geometry">
              <mxPoint x="690" y="340" as="sourcePoint" />
              <mxPoint x="750" y="490" as="targetPoint" />
              <mxPoint as="offset" />
              <Array as="points">
                <mxPoint x="300" y="100" />
                <mxPoint x="300" y="750" />
              </Array>
            </mxGeometry>
          </mxCell>
        </object>
        <object placeholders="1" c4Type="Relationship" c4Description="Can modify" label="&lt;div style=&quot;text-align: left&quot;&gt;&lt;div style=&quot;text-align: center&quot;&gt;&lt;b&gt;%c4Description%&lt;/b&gt;&lt;/div&gt;" id="orw1yc3T5QVGmbpuPVik-38">
          <mxCell style="endArrow=blockThin;html=1;fontSize=10;fontColor=#404040;strokeWidth=1;endFill=1;strokeColor=#828282;elbow=vertical;metaEdit=1;endSize=14;startSize=14;jumpStyle=arc;jumpSize=16;rounded=0;dashed=1;dashPattern=8 8;exitX=0;exitY=0.417;exitDx=0;exitDy=0;exitPerimeter=0;entryX=1;entryY=0.5;entryDx=0;entryDy=0;edgeStyle=orthogonalEdgeStyle;" parent="n138znTcwOguHpTBxl-C-14" source="orw1yc3T5QVGmbpuPVik-3" target="orw1yc3T5QVGmbpuPVik-5" edge="1">
            <mxGeometry x="0.0174" width="240" relative="1" as="geometry">
              <mxPoint x="940" y="510" as="sourcePoint" />
              <mxPoint x="840" y="650" as="targetPoint" />
              <mxPoint x="1" as="offset" />
              <Array as="points">
                <mxPoint x="1000" y="90" />
                <mxPoint x="1000" y="480" />
                <mxPoint x="670" y="480" />
                <mxPoint x="670" y="310" />
              </Array>
            </mxGeometry>
          </mxCell>
        </object>
        <mxCell id="n138znTcwOguHpTBxl-C-15" value="Legend" style="shape=table;startSize=30;container=1;collapsible=0;childLayout=tableLayout;fontSize=16;align=left;verticalAlign=top;fillColor=none;strokeColor=none;fontColor=#4D4D4D;fontStyle=1;spacingLeft=6;spacing=0;resizable=0;" parent="1" vertex="1">
          <mxGeometry x="190" y="-1360" width="180" height="210" as="geometry" />
        </mxCell>
        <mxCell id="n138znTcwOguHpTBxl-C-16" value="" style="shape=tableRow;horizontal=0;startSize=0;swimlaneHead=0;swimlaneBody=0;strokeColor=inherit;top=0;left=0;bottom=0;right=0;collapsible=0;dropTarget=0;fillColor=none;points=[[0,0.5],[1,0.5]];portConstraint=eastwest;fontSize=12;" parent="n138znTcwOguHpTBxl-C-15" vertex="1">
          <mxGeometry y="30" width="180" height="30" as="geometry" />
        </mxCell>
        <mxCell id="n138znTcwOguHpTBxl-C-17" value="Person" style="shape=partialRectangle;html=1;whiteSpace=wrap;connectable=0;strokeColor=inherit;overflow=hidden;fillColor=#1E4074;top=0;left=0;bottom=0;right=0;pointerEvents=1;fontSize=12;align=left;fontColor=#FFFFFF;gradientColor=none;spacingLeft=10;spacingRight=4;" parent="n138znTcwOguHpTBxl-C-16" vertex="1">
          <mxGeometry width="180" height="30" as="geometry">
            <mxRectangle width="180" height="30" as="alternateBounds" />
          </mxGeometry>
        </mxCell>
        <mxCell id="n138znTcwOguHpTBxl-C-18" value="" style="shape=tableRow;horizontal=0;startSize=0;swimlaneHead=0;swimlaneBody=0;strokeColor=inherit;top=0;left=0;bottom=0;right=0;collapsible=0;dropTarget=0;fillColor=none;points=[[0,0.5],[1,0.5]];portConstraint=eastwest;fontSize=12;" parent="n138znTcwOguHpTBxl-C-15" vertex="1">
          <mxGeometry y="60" width="180" height="30" as="geometry" />
        </mxCell>
        <mxCell id="n138znTcwOguHpTBxl-C-19" value="Software System" style="shape=partialRectangle;html=1;whiteSpace=wrap;connectable=0;strokeColor=inherit;overflow=hidden;fillColor=#3162AF;top=0;left=0;bottom=0;right=0;pointerEvents=1;fontSize=12;align=left;fontColor=#FFFFFF;gradientColor=none;spacingLeft=10;spacingRight=4;" parent="n138znTcwOguHpTBxl-C-18" vertex="1">
          <mxGeometry width="180" height="30" as="geometry">
            <mxRectangle width="180" height="30" as="alternateBounds" />
          </mxGeometry>
        </mxCell>
        <mxCell id="n138znTcwOguHpTBxl-C-20" value="" style="shape=tableRow;horizontal=0;startSize=0;swimlaneHead=0;swimlaneBody=0;strokeColor=inherit;top=0;left=0;bottom=0;right=0;collapsible=0;dropTarget=0;fillColor=none;points=[[0,0.5],[1,0.5]];portConstraint=eastwest;fontSize=12;" parent="n138znTcwOguHpTBxl-C-15" vertex="1">
          <mxGeometry y="90" width="180" height="30" as="geometry" />
        </mxCell>
        <mxCell id="n138znTcwOguHpTBxl-C-21" value="Container" style="shape=partialRectangle;html=1;whiteSpace=wrap;connectable=0;strokeColor=inherit;overflow=hidden;fillColor=#52a2d8;top=0;left=0;bottom=0;right=0;pointerEvents=1;fontSize=12;align=left;fontColor=#FFFFFF;gradientColor=none;spacingLeft=10;spacingRight=4;" parent="n138znTcwOguHpTBxl-C-20" vertex="1">
          <mxGeometry width="180" height="30" as="geometry">
            <mxRectangle width="180" height="30" as="alternateBounds" />
          </mxGeometry>
        </mxCell>
        <mxCell id="n138znTcwOguHpTBxl-C-22" value="" style="shape=tableRow;horizontal=0;startSize=0;swimlaneHead=0;swimlaneBody=0;strokeColor=inherit;top=0;left=0;bottom=0;right=0;collapsible=0;dropTarget=0;fillColor=none;points=[[0,0.5],[1,0.5]];portConstraint=eastwest;fontSize=12;" parent="n138znTcwOguHpTBxl-C-15" vertex="1">
          <mxGeometry y="120" width="180" height="30" as="geometry" />
        </mxCell>
        <mxCell id="n138znTcwOguHpTBxl-C-23" value="Component" style="shape=partialRectangle;html=1;whiteSpace=wrap;connectable=0;strokeColor=inherit;overflow=hidden;fillColor=#7dbef2;top=0;left=0;bottom=0;right=0;pointerEvents=1;fontSize=12;align=left;fontColor=#FFFFFF;gradientColor=none;spacingLeft=10;spacingRight=4;" parent="n138znTcwOguHpTBxl-C-22" vertex="1">
          <mxGeometry width="180" height="30" as="geometry">
            <mxRectangle width="180" height="30" as="alternateBounds" />
          </mxGeometry>
        </mxCell>
        <mxCell id="n138znTcwOguHpTBxl-C-24" value="" style="shape=tableRow;horizontal=0;startSize=0;swimlaneHead=0;swimlaneBody=0;strokeColor=inherit;top=0;left=0;bottom=0;right=0;collapsible=0;dropTarget=0;fillColor=none;points=[[0,0.5],[1,0.5]];portConstraint=eastwest;fontSize=12;" parent="n138znTcwOguHpTBxl-C-15" vertex="1">
          <mxGeometry y="150" width="180" height="30" as="geometry" />
        </mxCell>
        <mxCell id="n138znTcwOguHpTBxl-C-25" value="External Person" style="shape=partialRectangle;html=1;whiteSpace=wrap;connectable=0;strokeColor=inherit;overflow=hidden;fillColor=#6b6477;top=0;left=0;bottom=0;right=0;pointerEvents=1;fontSize=12;align=left;fontColor=#FFFFFF;gradientColor=none;spacingLeft=10;spacingRight=4;" parent="n138znTcwOguHpTBxl-C-24" vertex="1">
          <mxGeometry width="180" height="30" as="geometry">
            <mxRectangle width="180" height="30" as="alternateBounds" />
          </mxGeometry>
        </mxCell>
        <mxCell id="n138znTcwOguHpTBxl-C-26" value="" style="shape=tableRow;horizontal=0;startSize=0;swimlaneHead=0;swimlaneBody=0;strokeColor=inherit;top=0;left=0;bottom=0;right=0;collapsible=0;dropTarget=0;fillColor=none;points=[[0,0.5],[1,0.5]];portConstraint=eastwest;fontSize=12;" parent="n138znTcwOguHpTBxl-C-15" vertex="1">
          <mxGeometry y="180" width="180" height="30" as="geometry" />
        </mxCell>
        <mxCell id="n138znTcwOguHpTBxl-C-27" value="External Software System" style="shape=partialRectangle;html=1;whiteSpace=wrap;connectable=0;strokeColor=inherit;overflow=hidden;fillColor=#8b8496;top=0;left=0;bottom=0;right=0;pointerEvents=1;fontSize=12;align=left;fontColor=#FFFFFF;gradientColor=none;spacingLeft=10;spacingRight=4;" parent="n138znTcwOguHpTBxl-C-26" vertex="1">
          <mxGeometry width="180" height="30" as="geometry">
            <mxRectangle width="180" height="30" as="alternateBounds" />
          </mxGeometry>
        </mxCell>
      </root>
    </mxGraphModel>
  </diagram>
</mxfile>
